<?xml version="1.0" standalone="no"?>
<!DOCTYPE svg PUBLIC "-//W3C//DTD SVG 20010904//EN"
        "http://www.w3.org/TR/2001/REC-SVG-20010904/DTD/svg10.dtd">
<svg version="1.0" xmlns="http://www.w3.org/2000/svg"
     width="1024.000000pt" height="1024.000000pt" viewBox="0 0 1024.000000 1024.000000"
     preserveAspectRatio="xMidYMid meet">
    <metadata>
        Created by potrace 1.11, written by Peter Selinger 2001-2013
    </metadata>
    <g transform="translate(0.000000,1024.000000) scale(0.100000,-0.100000)"
       fill="#000000" stroke="none">
        <path d="M2642 8539 c-62 -31 -112 -108 -112 -173 0 -81 -21 -59 904 -986 984
-986 930 -924 931 -1065 0 -59 -5 -81 -32 -135 -28 -57 -76 -109 -385 -416
-398 -396 -402 -399 -528 -399 -147 0 -73 -64 -1055 915 -484 483 -896 886
-915 895 -81 41 -196 10 -247 -66 -34 -52 -43 -140 -19 -190 9 -20 404 -421
919 -935 l902 -901 85 -41 c118 -57 195 -75 320 -76 111 0 176 12 273 51 99
40 165 89 292 214 l121 119 284 -285 285 -285 -1387 -1387 c-1085 -1086 -1392
-1398 -1407 -1433 -61 -135 32 -280 179 -280 22 0 57 7 78 15 26 11 346 325
1090 1068 l1052 1052 510 -510 510 -510 1561 1560 c1107 1107 1580 1586 1628
1650 151 201 239 390 297 640 26 112 28 134 29 345 0 199 -3 238 -23 334 -74
345 -233 625 -506 896 l-86 85 -1623 -1623 -1622 -1622 -284 284 -285 285 130
133 c105 108 138 150 172 216 58 111 83 212 83 337 0 162 -40 286 -136 420
-67 93 -1772 1791 -1817 1810 -52 21 -115 19 -166 -6z m5598 -901 c64 -105
123 -254 151 -388 29 -135 31 -363 5 -485 -38 -176 -102 -330 -199 -475 -38
-58 -365 -391 -1478 -1505 l-1429 -1430 -370 370 -370 370 1812 1812 c997 997
1816 1813 1820 1813 4 0 30 -37 58 -82z"/>
        <path d="M1985 7868 c-108 -38 -163 -160 -120 -266 19 -46 1388 -1420 1453
-1459 37 -22 52 -25 107 -21 71 4 99 19 149 81 40 50 48 135 18 193 -30 58
-1426 1449 -1474 1469 -42 17 -89 18 -133 3z"/>
        <path d="M6580 3254 c-104 -45 -150 -167 -100 -268 28 -58 1241 -1270 1292
-1291 117 -48 255 28 274 152 15 100 39 72 -644 757 -426 427 -640 634 -667
647 -48 22 -108 24 -155 3z"/>
    </g>
</svg>
