<?xml version="1.0" standalone="no"?>
<!DOCTYPE svg PUBLIC "-//W3C//DTD SVG 20010904//EN"
        "http://www.w3.org/TR/2001/REC-SVG-20010904/DTD/svg10.dtd">
<svg version="1.0" xmlns="http://www.w3.org/2000/svg"
     width="512.000000pt" height="512.000000pt" viewBox="0 0 512.000000 512.000000"
     preserveAspectRatio="xMidYMid meet">
    <metadata>
        Created by potrace 1.14, written by Peter Selinger 2001-2017
    </metadata>
    <g transform="translate(0.000000,512.000000) scale(0.100000,-0.100000)"
       fill="#000000" stroke="none">
        <path d="M1309 4267 c-37 -25 -55 -70 -45 -114 5 -19 151 -172 456 -478 417
-419 448 -453 455 -492 12 -73 -14 -110 -212 -305 -111 -109 -189 -179 -207
-184 -15 -3 -48 -4 -73 -1 -45 5 -52 12 -497 456 l-452 451 -48 0 c-39 0 -53
-5 -77 -29 -23 -23 -29 -38 -29 -72 l0 -43 458 -459 c489 -490 503 -502 614
-516 127 -16 225 20 333 121 l66 62 137 -137 137 -137 -703 -703 c-696 -696
-702 -703 -702 -742 0 -47 19 -79 61 -101 64 -33 57 -39 624 527 l530 529 255
-255 255 -255 788 787 c434 434 806 813 826 843 101 146 141 267 148 442 5
108 2 142 -16 221 -23 99 -69 206 -123 285 -39 57 -157 182 -172 182 -6 0
-373 -362 -816 -805 l-805 -805 -137 137 -137 137 53 55 c105 111 143 203 133
319 -13 131 -14 133 -505 625 -246 247 -459 455 -474 463 -37 20 -60 18 -99
-9z m2825 -487 c96 -193 87 -418 -25 -607 -24 -41 -236 -258 -747 -771 l-714
-715 -181 182 -182 181 900 900 c495 495 903 900 907 900 4 0 22 -31 42 -70z"/>
        <path d="M984 3936 c-43 -19 -64 -52 -64 -100 0 -40 7 -47 358 -399 196 -197
370 -365 386 -374 66 -35 146 20 146 100 0 41 -3 44 -357 400 -314 315 -396
388 -430 387 -4 -1 -22 -7 -39 -14z"/>
        <path d="M3261 1614 c-38 -31 -49 -80 -28 -120 26 -48 638 -652 670 -659 81
-20 154 73 116 148 -16 31 -608 625 -641 643 -41 21 -83 17 -117 -12z"/>
    </g>
</svg>
