<?xml version="1.0" standalone="no"?><!DOCTYPE svg PUBLIC "-//W3C//DTD SVG 20010904//EN"
    "http://www.w3.org/TR/2001/REC-SVG-20010904/DTD/svg10.dtd">
<svg height="1024.000000pt" preserveAspectRatio="xMidYMid meet" version="1.0"
    viewBox="0 0 1024.000000 1024.000000" width="1024.000000pt" xmlns="http://www.w3.org/2000/svg">
    <metadata>
        Created by potrace 1.11, written by Peter Selinger 2001-2013
    </metadata>
    <g fill="#000000" stroke="none"
        transform="translate(0.000000,1024.000000) scale(0.100000,-0.100000)">
        <path d="M1400 10224 c-607 -92 -1108 -503 -1308 -1074 -25 -74 -40 -131 -79
-310 -4 -19 -8 -1684 -9 -3700 -3 -3577 -2 -3668 17 -3769 94 -512 353 -884
804 -1158 84 -51 238 -114 375 -154 67 -20 82 -23 215 -44 64 -10 821 -13
3735 -11 2010 1 3669 5 3685 9 17 4 55 12 85 18 360 68 703 270 937 551 166
199 291 447 343 683 40 177 39 62 39 3840 0 2158 -4 3656 -10 3695 -55 393
-207 703 -473 965 -179 177 -356 290 -589 376 -83 31 -206 64 -272 74 -22 3
-65 9 -95 15 -33 5 -1505 9 -3680 8 -3099 0 -3639 -2 -3720 -14z" />
    </g>
</svg>
